<svg xmlns="http://www.w3.org/2000/svg" viewBox="0 0 320 240" width="320" height="240">
  <rect width="320" height="240" fill="#1c2023"/>
  
      <rect x="60" y="60" width="200" height="100" rx="12" fill="#262b2e" stroke="#3a4a3d"/>
      <g transform="translate(100 110)">
        <path d="M 0 0 Q -50 -5 -65 -25 Q -45 -20 -25 -25 Q -45 -35 -50 -55 Q -25 -40 -10 -45 Q -20 -55 -10 -65 Q 0 -50 0 -30 Q 0 -50 10 -65 Q 20 -55 10 -45 Q 25 -40 50 -55 Q 45 -35 25 -25 Q 45 -20 65 -25 Q 50 -5 0 0 Z"
          fill="#5a8a64" stroke="#1f3d27" stroke-width="1.2"/>
      </g>
      <circle cx="190" cy="90" r="4" fill="#5a3a2a"/>
      <circle cx="205" cy="105" r="5" fill="#5a3a2a"/>
      <circle cx="195" cy="120" r="3" fill="#5a3a2a"/>
      <text x="160" y="175" text-anchor="middle" fill="#a0a8a2" font-size="14" font-family="sans-serif">braune Flecken, neue Blätter</text>
    
  <text x="160" y="232" text-anchor="middle" fill="#7a8a82" font-size="11" font-family="sans-serif" font-style="italic">GrowManager Diagnose</text>
</svg>