<svg xmlns="http://www.w3.org/2000/svg" viewBox="0 0 320 240" width="320" height="240">
  <rect width="320" height="240" fill="#1c2023"/>
  <rect x="28" y="28" width="264" height="184" rx="18" fill="#23282b" stroke="#333a3d" stroke-width="2"/>
  
    <g transform="translate(160,120)">
      <line x1="-60" y1="-60" x2="-40" y2="-45" stroke="#f0c850" stroke-width="4" stroke-linecap="round"/>
      <line x1="-30" y1="-60" x2="-10" y2="-45" stroke="#f0c850" stroke-width="4" stroke-linecap="round"/>
      <line x1="0" y1="-60" x2="20" y2="-45" stroke="#f0c850" stroke-width="4" stroke-linecap="round"/>
      <line x1="30" y1="-60" x2="50" y2="-45" stroke="#f0c850" stroke-width="4" stroke-linecap="round"/>
      <line x1="-50" y1="-45" x2="-30" y2="-30" stroke="#f0c850" stroke-width="3" stroke-linecap="round"/>
      <line x1="-20" y1="-45" x2="0" y2="-30" stroke="#f0c850" stroke-width="3" stroke-linecap="round"/>
      <line x1="10" y1="-45" x2="30" y2="-30" stroke="#f0c850" stroke-width="3" stroke-linecap="round"/>
      <line x1="40" y1="-45" x2="60" y2="-30" stroke="#f0c850" stroke-width="3" stroke-linecap="round"/>
      
  <g transform="translate(0 10) scale(0.85)" opacity="0.95">
    <path d="M 0 -48 Q -30 -42 -40 -15 Q -30 -30 -12 -32 Q -24 -18 -26 0 Q -34 -12 -44 5 Q -30 -6 -18 -3 Q -30 8 -30 26 Q -18 16 -8 10 Q -10 26 -2 34 Q 0 22 0 8 Q 0 22 2 34 Q 10 26 8 10 Q 18 16 30 26 Q 30 8 18 -3 Q 30 -6 44 5 Q 34 -12 26 0 Q 24 -18 12 -32 Q 30 -30 40 -15 Q 30 -42 0 -48 Z" fill="#c8a040" stroke="#1c3a27" stroke-width="1.6" stroke-linejoin="round"/>
    <line x1="0" y1="34" x2="0" y2="50" stroke="#1c3a27" stroke-width="2.2"/>
  </g>
      <text x="0" y="82" text-anchor="middle" fill="#a7b0a8" font-size="15" font-family="sans-serif">Lichtbrand</text>
    </g>
</svg>