<svg xmlns="http://www.w3.org/2000/svg" viewBox="0 0 320 240" width="320" height="240">
  <rect width="320" height="240" fill="#1c2023"/>
  
      <rect x="60" y="60" width="200" height="100" rx="12" fill="#262b2e" stroke="#3a4a3d"/>
      <line x1="160" y1="140" x2="160" y2="85" stroke="#5a8a4a" stroke-width="4"/>
      <ellipse cx="145" cy="95" rx="10" ry="7" fill="#5a8a4a" stroke="#1f3d27" stroke-width="1" transform="rotate(-30 145 95)"/>
      <ellipse cx="175" cy="95" rx="10" ry="7" fill="#5a8a4a" stroke="#1f3d27" stroke-width="1" transform="rotate(30 175 95)"/>
      <g transform="translate(160 115)">
        <ellipse cx="0" cy="0" rx="5" ry="3" fill="#f0f0f0" stroke="#aaa"/>
        <circle cx="-3" cy="-2" r="0.8" fill="#fff"/>
        <circle cx="3" cy="-2" r="0.8" fill="#fff"/>
        <circle cx="0" cy="0" r="0.8" fill="#fff"/>
        <circle cx="-2" cy="2" r="0.8" fill="#fff"/>
        <circle cx="2" cy="2" r="0.8" fill="#fff"/>
      </g>
      <g transform="translate(135 105)">
        <ellipse cx="0" cy="0" rx="4" ry="2.5" fill="#f0f0f0" stroke="#aaa"/>
        <circle cx="-2" cy="-1" r="0.6" fill="#fff"/>
        <circle cx="2" cy="-1" r="0.6" fill="#fff"/>
        <circle cx="0" cy="1" r="0.6" fill="#fff"/>
      </g>
      <text x="160" y="175" text-anchor="middle" fill="#a0a8a2" font-size="14" font-family="sans-serif">weiße watteartige Beläge</text>
    
  <text x="160" y="232" text-anchor="middle" fill="#7a8a82" font-size="11" font-family="sans-serif" font-style="italic">GrowManager Diagnose</text>
</svg>