<svg xmlns="http://www.w3.org/2000/svg" viewBox="0 0 320 240" width="320" height="240">
  <rect width="320" height="240" fill="#1c2023"/>
  <rect x="28" y="28" width="264" height="184" rx="18" fill="#23282b" stroke="#333a3d" stroke-width="2"/>
  
    <g transform="translate(160,120)">
      <line x1="0" y1="55" x2="0" y2="-25" stroke="#5a8a4a" stroke-width="4"/>
      <ellipse cx="-15" cy="-15" rx="11" ry="8" fill="#5a8a4a" stroke="#1c3a27" stroke-width="1" transform="rotate(-30 -15 -15)"/>
      <ellipse cx="15" cy="-15" rx="11" ry="8" fill="#5a8a4a" stroke="#1c3a27" stroke-width="1" transform="rotate(30 15 -15)"/>
      <g transform="translate(0, 5)">
        <ellipse cx="0" cy="0" rx="6" ry="4" fill="#f0f0f0" stroke="#aaa" stroke-width="0.5"/>
        <circle cx="-3" cy="-2" r="0.8" fill="#fff"/><circle cx="3" cy="-2" r="0.8" fill="#fff"/><circle cx="0" cy="0" r="0.8" fill="#fff"/><circle cx="-2" cy="2" r="0.8" fill="#fff"/><circle cx="2" cy="2" r="0.8" fill="#fff"/>
      </g>
      <g transform="translate(-25, -5)">
        <ellipse cx="0" cy="0" rx="5" ry="3" fill="#f0f0f0" stroke="#aaa" stroke-width="0.5"/>
        <circle cx="-2" cy="-1" r="0.7" fill="#fff"/><circle cx="2" cy="-1" r="0.7" fill="#fff"/><circle cx="0" cy="1" r="0.7" fill="#fff"/>
      </g>
      <text x="0" y="82" text-anchor="middle" fill="#a7b0a8" font-size="15" font-family="sans-serif">Wollläuse</text>
    </g>
</svg>