<svg xmlns="http://www.w3.org/2000/svg" viewBox="0 0 320 240" width="320" height="240">
  <rect width="320" height="240" fill="#1c2023"/>
  
      <rect x="60" y="60" width="200" height="100" rx="12" fill="#262b2e" stroke="#3a4a3d"/>
      <ellipse cx="160" cy="140" rx="80" ry="10" fill="#3a4a3d"/>
      
  <g transform="translate(160 100) scale(0.7)">
    <path d="M 0 -40 Q -25 -35 -35 -10 Q -28 -25 -10 -28 Q -20 -15 -22 0 Q -30 -10 -38 5 Q -28 -5 -16 -2 Q -28 8 -28 22 Q -16 12 -8 8 Q -10 22 -2 30 Q 0 18 0 5 Q 0 18 2 30 Q 10 22 8 8 Q 16 12 28 22 Q 28 8 16 -2 Q 28 -5 38 5 Q 30 -10 22 0 Q 20 -15 10 -28 Q 28 -25 35 -10 Q 25 -35 0 -40 Z"
      fill="#3a7a4a" stroke="#1f3d27" stroke-width="1.5" stroke-linejoin="round"/>
    <line x1="0" y1="30" x2="0" y2="42" stroke="#1f3d27" stroke-width="2"/>
  </g>

      <g transform="rotate(20 130 115)">
        <path d="M 130 115 Q 110 130 130 140" stroke="#4a8a9a" stroke-width="2" fill="none"/>
        <ellipse cx="130" cy="120" rx="8" ry="14" fill="#5a9a4a" stroke="#1f3d27" stroke-width="1"/>
      </g>
      <g transform="rotate(-20 190 115)">
        <path d="M 190 115 Q 210 130 190 140" stroke="#4a8a9a" stroke-width="2" fill="none"/>
        <ellipse cx="190" cy="120" rx="8" ry="14" fill="#5a9a4a" stroke="#1f3d27" stroke-width="1"/>
      </g>
      <path d="M 210 125 Q 215 130 210 135" stroke="#5a8aaa" stroke-width="2" fill="none"/>
      <text x="160" y="175" text-anchor="middle" fill="#a0a8a2" font-size="14" font-family="sans-serif">schlaffe Blätter, nasse Erde</text>
    
  <text x="160" y="232" text-anchor="middle" fill="#7a8a82" font-size="11" font-family="sans-serif" font-style="italic">GrowManager Diagnose</text>
</svg>