<svg xmlns="http://www.w3.org/2000/svg" viewBox="0 0 320 240" width="320" height="240">
  <rect width="320" height="240" fill="#1c2023"/>
  
      <rect x="60" y="60" width="200" height="100" rx="12" fill="#262b2e" stroke="#3a4a3d"/>
      
  <g transform="translate(160 110) scale(0.8)">
    <path d="M 0 -40 Q -25 -35 -35 -10 Q -28 -25 -10 -28 Q -20 -15 -22 0 Q -30 -10 -38 5 Q -28 -5 -16 -2 Q -28 8 -28 22 Q -16 12 -8 8 Q -10 22 -2 30 Q 0 18 0 5 Q 0 18 2 30 Q 10 22 8 8 Q 16 12 28 22 Q 28 8 16 -2 Q 28 -5 38 5 Q 30 -10 22 0 Q 20 -15 10 -28 Q 28 -25 35 -10 Q 25 -35 0 -40 Z"
      fill="#5a8a4a" stroke="#1f3d27" stroke-width="1.5" stroke-linejoin="round"/>
    <line x1="0" y1="30" x2="0" y2="42" stroke="#1f3d27" stroke-width="2"/>
  </g>

      <g transform="translate(130 115)">
        <ellipse cx="0" cy="0" rx="4" ry="2" fill="#e0e0e0"/>
        <ellipse cx="-5" cy="-2" rx="4" ry="2" fill="#e0e0e0" transform="rotate(-30)"/>
        <ellipse cx="5" cy="-2" rx="4" ry="2" fill="#e0e0e0" transform="rotate(30)"/>
        <ellipse cx="0" cy="0" rx="1" ry="1.5" fill="#3a3a3a"/>
      </g>
      <g transform="translate(180 125)">
        <ellipse cx="0" cy="0" rx="4" ry="2" fill="#e0e0e0"/>
        <ellipse cx="-5" cy="-2" rx="4" ry="2" fill="#e0e0e0" transform="rotate(-30)"/>
        <ellipse cx="5" cy="-2" rx="4" ry="2" fill="#e0e0e0" transform="rotate(30)"/>
        <ellipse cx="0" cy="0" rx="1" ry="1.5" fill="#3a3a3a"/>
      </g>
      <g transform="translate(165 100)">
        <ellipse cx="0" cy="0" rx="3" ry="1.5" fill="#e0e0e0"/>
        <ellipse cx="-4" cy="-1" rx="3" ry="1.5" fill="#e0e0e0" transform="rotate(-30)"/>
        <ellipse cx="4" cy="-1" rx="3" ry="1.5" fill="#e0e0e0" transform="rotate(30)"/>
      </g>
      <text x="160" y="175" text-anchor="middle" fill="#a0a8a2" font-size="14" font-family="sans-serif">weiße Fliegen</text>
    
  <text x="160" y="232" text-anchor="middle" fill="#7a8a82" font-size="11" font-family="sans-serif" font-style="italic">GrowManager Diagnose</text>
</svg>