<svg xmlns="http://www.w3.org/2000/svg" viewBox="0 0 512 512" width="512" height="512">
  <rect width="512" height="512" rx="96" fill="#1c2023"/>
  <g transform="translate(256,266)">
    <path fill="#2e7d4f" d="M0,-190
      C 14,-150 22,-108 20,-70
      C 55,-95 95,-108 138,-104
      C 118,-80 92,-62 66,-50
      C 100,-46 132,-32 158,-8
      C 128,-2 96,-4 66,-14
      C 84,10 96,40 96,74
      C 68,58 44,36 26,10
      C 26,50 18,90 0,128
      C -18,90 -26,50 -26,10
      C -44,36 -68,58 -96,74
      C -96,40 -84,10 -66,-14
      C -96,-4 -128,-2 -158,-8
      C -132,-32 -100,-46 -66,-50
      C -92,-62 -118,-80 -138,-104
      C -95,-108 -55,-95 -20,-70
      C -22,-108 -14,-150 0,-190 Z"/>
    <rect x="-6" y="120" width="12" height="46" rx="4" fill="#1e5c3b"/>
  </g>
</svg>
